<?xml version="1.0" encoding="UTF-8" standalone="no"?><!DOCTYPE svg PUBLIC "-//W3C//DTD SVG 1.1//EN" "http://www.w3.org/Graphics/SVG/1.1/DTD/svg11.dtd"><svg width="100%" height="100%" viewBox="0 0 111 198" version="1.1" xmlns="http://www.w3.org/2000/svg" xmlns:xlink="http://www.w3.org/1999/xlink" xml:space="preserve" xmlns:serif="http://www.serif.com/" style="fill-rule:evenodd;clip-rule:evenodd;stroke-linecap:round;stroke-linejoin:round;stroke-miterlimit:1.5;"><g><path d="M106.071,21.726l-101.554,34.584" style="fill:none;stroke:#fbdbd3;stroke-width:9px;"/><path d="M85.415,5.32l-64.402,21.965" style="fill:none;stroke:#fbdbd3;stroke-width:9px;"/><g><path d="M106.071,70.457l-101.554,30.829" style="fill:none;stroke:#fbdbd3;stroke-width:9px;"/><path d="M4.517,102.019c13.858,1.218 36.438,14.487 35.158,32.982" style="fill:none;stroke:#fbdbd3;stroke-width:9px;"/></g><path d="M106.071,45.65l-101.554,33.685" style="fill:none;stroke:#fbdbd3;stroke-width:9px;"/><path d="M106.071,94.761c-13.147,4.545 -31.848,22.788 -26.145,40.24" style="fill:none;stroke:#fbdbd3;stroke-width:9px;"/><path d="M85.415,184.107c-1.981,7.644 -8.91,13.134 -16.988,13.134l-14.425,0c-8.078,0 -15.008,-5.49 -16.989,-13.134l48.402,0Z" style="fill:#fbdbd3;"/><path d="M86.041,180.35l-49.654,0c0,0 -0.321,-2.472 -0.573,-4.413c-0.076,-0.579 0.102,-1.161 0.487,-1.6c0.385,-0.438 0.94,-0.689 1.523,-0.689c8.544,0 38.319,0 46.812,0c0.575,0 1.123,0.248 1.502,0.68c0.38,0.432 0.555,1.007 0.481,1.578c-0.253,1.946 -0.578,4.444 -0.578,4.444Z" style="fill:#fbdbd3;"/><path d="M87.401,169.891l-52.374,0c0,0 -0.279,-2.152 -0.51,-3.924c-0.075,-0.58 0.103,-1.165 0.489,-1.604c0.386,-0.44 0.943,-0.692 1.528,-0.692c8.849,0 40.48,0 49.349,0c0.588,0 1.148,0.253 1.536,0.695c0.388,0.442 0.567,1.03 0.491,1.613c-0.23,1.77 -0.509,3.912 -0.509,3.912Z" style="fill:#fbdbd3;"/><path d="M88.698,159.914l-54.968,0c0,0 -0.263,-2.024 -0.482,-3.711c-0.074,-0.567 0.1,-1.137 0.477,-1.566c0.377,-0.429 0.92,-0.675 1.491,-0.675c9.099,0 42.997,0 52.032,0c0.562,0 1.097,0.242 1.468,0.664c0.371,0.422 0.542,0.984 0.47,1.542c-0.221,1.694 -0.488,3.746 -0.488,3.746Z" style="fill:#fbdbd3;"/><path d="M92.611,150.653l-63.234,0c0,0 -0.734,-3.999 -1.225,-6.676c-0.107,-0.584 0.051,-1.186 0.431,-1.642c0.38,-0.456 0.943,-0.719 1.537,-0.719c10.381,0 51.366,0 61.748,0c0.593,0 1.156,0.263 1.536,0.719c0.38,0.456 0.538,1.058 0.431,1.642c-0.491,2.677 -1.224,6.676 -1.224,6.676Z" style="fill:#fbdbd3;"/></g></svg>