<?xml version="1.0" encoding="UTF-8" standalone="no"?><!DOCTYPE svg PUBLIC "-//W3C//DTD SVG 1.1//EN" "http://www.w3.org/Graphics/SVG/1.1/DTD/svg11.dtd"><svg width="100%" height="100%" viewBox="0 0 182 183" version="1.1" xmlns="http://www.w3.org/2000/svg" xmlns:xlink="http://www.w3.org/1999/xlink" xml:space="preserve" xmlns:serif="http://www.serif.com/" style="fill-rule:evenodd;clip-rule:evenodd;stroke-linecap:square;stroke-linejoin:round;stroke-miterlimit:1.5;"><g><path d="M100.11,8.936c0,-4.836 -3.926,-8.763 -8.763,-8.763c-4.836,0 -8.763,3.927 -8.763,8.763l0,23.359c0,4.837 3.927,8.763 8.763,8.763c4.837,0 8.763,-3.926 8.763,-8.763l0,-23.359Z" style="fill:#807f83;"/><path d="M58.792,16.346c-2.418,-4.188 -7.782,-5.626 -11.971,-3.207c-4.188,2.418 -5.625,7.782 -3.207,11.97l11.561,20.025c2.418,4.188 7.782,5.625 11.971,3.207c4.188,-2.418 5.625,-7.782 3.207,-11.971l-11.561,-20.024Z" style="fill:#807f83;"/><path d="M125.184,14.968c2.264,-3.922 7.287,-5.268 11.209,-3.003c3.922,2.264 5.268,7.286 3.003,11.208l-12.958,22.444c-2.264,3.922 -7.286,5.267 -11.208,3.003c-3.922,-2.264 -5.268,-7.287 -3.004,-11.209l12.958,-22.443Z" style="fill:#807f83;"/><path d="M27.379,44.069c-4.189,-2.418 -9.553,-0.981 -11.971,3.208c-2.418,4.188 -0.981,9.552 3.208,11.97l20.996,12.122c4.188,2.419 9.552,0.981 11.97,-3.207c2.418,-4.189 0.981,-9.553 -3.207,-11.971l-20.996,-12.122Z" style="fill:#807f83;"/><path d="M154.927,43.716c4.189,-2.419 9.553,-0.981 11.971,3.207c2.418,4.189 0.981,9.553 -3.208,11.971l-20.881,12.056c-4.189,2.418 -9.552,0.981 -11.971,-3.208c-2.418,-4.188 -0.981,-9.552 3.208,-11.97l20.881,-12.056Z" style="fill:#807f83;"/><path d="M29.769,136.907c-4.188,2.418 -9.552,0.981 -11.97,-3.208c-2.419,-4.189 -0.981,-9.552 3.207,-11.971l18.606,-10.741c4.188,-2.419 9.552,-0.982 11.97,3.207c2.418,4.189 0.981,9.552 -3.207,11.971l-18.606,10.742Z" style="fill:#807f83;"/><path d="M158.135,139.032c4.188,2.419 9.552,0.981 11.97,-3.207c2.419,-4.189 0.981,-9.553 -3.207,-11.971l-20.882,-12.056c-4.188,-2.418 -9.552,-0.981 -11.97,3.208c-2.419,4.188 -0.981,9.552 3.207,11.971l20.882,12.055Z" style="fill:#807f83;"/><path d="M58.792,165.971c-2.418,4.188 -7.782,5.625 -11.971,3.207c-4.188,-2.418 -5.625,-7.782 -3.207,-11.971l11.069,-19.171c2.418,-4.189 7.782,-5.626 11.97,-3.208c4.189,2.418 5.626,7.782 3.208,11.971l-11.069,19.172Z" style="fill:#807f83;"/><path d="M123.876,164.739c2.418,4.189 7.782,5.626 11.971,3.208c4.188,-2.419 5.625,-7.783 3.207,-11.971l-12.209,-21.148c-2.419,-4.188 -7.783,-5.626 -11.971,-3.207c-4.189,2.418 -5.626,7.782 -3.208,11.97l12.21,21.148Z" style="fill:#807f83;"/><path d="M9.11,80.712c-4.836,0 -8.763,3.926 -8.763,8.763c0,4.836 3.927,8.763 8.763,8.763l21.359,0c4.837,0 8.763,-3.927 8.763,-8.763c0,-4.837 -3.926,-8.763 -8.763,-8.763l-21.359,0Z" style="fill:#807f83;"/><path d="M172.847,79.982c4.837,0 8.764,3.926 8.764,8.763c0,4.836 -3.927,8.763 -8.764,8.763l-23.358,0c-4.837,0 -8.764,-3.927 -8.764,-8.763c0,-4.837 3.927,-8.763 8.764,-8.763l23.358,0Z" style="fill:#807f83;"/><path d="M100.11,150.051c0,-4.836 -3.926,-8.763 -8.763,-8.763c-4.836,0 -8.763,3.927 -8.763,8.763l0,23.359c0,4.837 3.927,8.763 8.763,8.763c4.837,0 8.763,-3.926 8.763,-8.763l0,-23.359Z" style="fill:#807f83;"/><circle cx="91.347" cy="91.969" r="36.91" style="fill:none;stroke:#807f83;stroke-width:10px;"/></g></svg>