<?xml version="1.0" encoding="UTF-8" standalone="no"?><!DOCTYPE svg PUBLIC "-//W3C//DTD SVG 1.1//EN" "http://www.w3.org/Graphics/SVG/1.1/DTD/svg11.dtd"><svg width="100%" height="100%" viewBox="0 0 296 296" version="1.1" xmlns="http://www.w3.org/2000/svg" xmlns:xlink="http://www.w3.org/1999/xlink" xml:space="preserve" xmlns:serif="http://www.serif.com/" style="fill-rule:evenodd;clip-rule:evenodd;stroke-linejoin:round;stroke-miterlimit:2;"><g><g><path d="M120.645,249.651c56.03,14.964 113.668,-18.377 128.632,-74.407c14.964,-56.03 -18.377,-113.668 -74.406,-128.632c-56.03,-14.964 -113.668,18.377 -128.632,74.407c-14.964,56.03 18.376,113.668 74.406,128.632Z" style="fill:#8ec400;"/><path d="M249.277,175.244c-14.974,56.068 -72.565,89.381 -128.632,74.407c-56.068,-14.974 -89.38,-72.565 -74.406,-128.632l101.519,27.112l101.519,27.113Z" style="fill:#ea644d;"/><path d="M45.405,171.904c13.129,56.528 69.597,91.709 126.125,78.58l-23.772,-102.353l-102.353,23.773Z" style="fill:#fbba41;"/></g><g><text x="173.493px" y="41.71px" style="font-family:'ArialMT', 'Arial', sans-serif;font-size:15px;">1</text><text x="117.241px" y="263.557px" style="font-family:'ArialMT', 'Arial', sans-serif;font-size:15px;">1</text><text x="198.921px" y="52.257px" style="font-family:'ArialMT', 'Arial', sans-serif;font-size:15px;">2</text><text x="88.642px" y="253.141px" style="font-family:'ArialMT', 'Arial', sans-serif;font-size:15px;">2</text><text x="220.867px" y="70.344px" style="font-family:'ArialMT', 'Arial', sans-serif;font-size:15px;">3</text><text x="66.673px" y="235.204px" style="font-family:'ArialMT', 'Arial', sans-serif;font-size:15px;">3</text><text x="239.645px" y="92.336px" style="font-family:'ArialMT', 'Arial', sans-serif;font-size:15px;">4</text><text x="47.958px" y="211.123px" style="font-family:'ArialMT', 'Arial', sans-serif;font-size:15px;">4</text><text x="248.782px" y="118.983px" style="font-family:'ArialMT', 'Arial', sans-serif;font-size:15px;">5</text><text x="35.109px" y="182.348px" style="font-family:'Arial-BoldMT', 'Arial', sans-serif;font-weight:700;font-size:18px;fill:#fbba41;">5</text><text x="253.398px" y="151.067px" style="font-family:'ArialMT', 'Arial', sans-serif;font-size:15px;">6</text><text x="32.177px" y="151.089px" style="font-family:'ArialMT', 'Arial', sans-serif;font-size:15px;">6</text><text x="250.651px" y="182.715px" style="font-family:'Arial-BoldMT', 'Arial', sans-serif;font-weight:700;font-size:18px;fill:#fbba41;">7</text><text x="36.153px" y="119.072px" style="font-family:'Arial-BoldMT', 'Arial', sans-serif;font-weight:700;font-size:18px;fill:#fbba41;">7</text><text x="239.372px" y="208.548px" style="font-family:'ArialMT', 'Arial', sans-serif;font-size:15px;">8</text><text x="49.727px" y="92.21px" style="font-family:'ArialMT', 'Arial', sans-serif;font-size:15px;">8</text><text x="222.084px" y="233.623px" style="font-family:'ArialMT', 'Arial', sans-serif;font-size:15px;">9</text><text x="68.677px" y="69.342px" style="font-family:'ArialMT', 'Arial', sans-serif;font-size:15px;">9</text><text x="196.758px" y="250.583px" style="font-family:'ArialMT', 'Arial', sans-serif;font-size:15px;">10</text><text x="88.008px" y="51.089px" style="font-family:'ArialMT', 'Arial', sans-serif;font-size:15px;">10</text><text x="169.187px" y="264.57px" style="font-family:'Arial-BoldMT', 'Arial', sans-serif;font-weight:700;font-size:18px;fill:#fbba41;">1<tspan x="178.205px " y="264.57px ">1</tspan></text><text x="116.296px" y="41.71px" style="font-family:'ArialMT', 'Arial', sans-serif;font-size:15px;">1<tspan x="123.525px " y="41.71px ">1</tspan></text><text x="127.176px" y="278.498px" style="font-family:'ArialMT', 'Arial', sans-serif;font-size:13px;">NOON</text><text x="114.151px" y="19.474px" style="font-family:'ArialMT', 'Arial', sans-serif;font-size:13px;">MIDNIGHT</text><text x="205.556px" y="148.004px" style="font-family:'ArialMT', 'Arial', sans-serif;font-size:18px;fill:#fff;">A.M.</text><text x="61.555px" y="150.776px" style="font-family:'ArialMT', 'Arial', sans-serif;font-size:18px;fill:#fff;">P<tspan x="71.24px 76.241px " y="150.776px 150.776px ">.M</tspan>.</text></g></g></svg>