<?xml version="1.0" encoding="UTF-8" standalone="no"?><!DOCTYPE svg PUBLIC "-//W3C//DTD SVG 1.1//EN" "http://www.w3.org/Graphics/SVG/1.1/DTD/svg11.dtd"><svg width="100%" height="100%" viewBox="0 0 121 223" version="1.1" xmlns="http://www.w3.org/2000/svg" xmlns:xlink="http://www.w3.org/1999/xlink" xml:space="preserve" xmlns:serif="http://www.serif.com/" style="fill-rule:evenodd;clip-rule:evenodd;stroke-linejoin:round;stroke-miterlimit:2;"><g><path d="M120.31,9.485c0,-4.836 -3.926,-8.763 -8.763,-8.763c-4.836,0 -8.763,3.927 -8.763,8.763l0,57.359c0,4.837 3.927,8.764 8.763,8.764c4.837,0 8.763,-3.927 8.763,-8.764l0,-57.359Z" style="fill:#f7b2a6;"/><path d="M68.682,19.037c-2.419,-4.188 -7.783,-5.626 -11.971,-3.207c-4.189,2.418 -5.626,7.782 -3.208,11.97l28.68,49.675c2.418,4.188 7.782,5.625 11.971,3.207c4.188,-2.418 5.625,-7.782 3.207,-11.971l-28.679,-49.674Z" style="fill:#f7b2a6;"/><path d="M30.27,54.625c-4.189,-2.418 -9.552,-0.981 -11.971,3.208c-2.418,4.188 -0.981,9.552 3.208,11.97l49.674,28.68c4.189,2.418 9.552,0.981 11.971,-3.208c2.418,-4.188 0.981,-9.552 -3.208,-11.97l-49.674,-28.68Z" style="fill:#f7b2a6;"/><path d="M30.27,168.829c-4.189,2.418 -9.552,0.981 -11.971,-3.208c-2.418,-4.188 -0.981,-9.552 3.208,-11.97l49.674,-28.68c4.189,-2.418 9.552,-0.981 11.971,3.208c2.418,4.188 0.981,9.552 -3.208,11.971l-49.674,28.679Z" style="fill:#f7b2a6;"/><path d="M68.682,204.378c-2.419,4.188 -7.783,5.626 -11.971,3.207c-4.189,-2.418 -5.626,-7.782 -3.208,-11.97l28.68,-49.675c2.418,-4.188 7.782,-5.625 11.971,-3.207c4.188,2.418 5.625,7.782 3.207,11.971l-28.679,49.674Z" style="fill:#f7b2a6;"/><path d="M9.31,101.261c-4.836,0 -8.763,3.926 -8.763,8.763c0,4.836 3.927,8.763 8.763,8.763l57.359,0c4.837,0 8.763,-3.927 8.763,-8.763c0,-4.837 -3.926,-8.763 -8.763,-8.763l-57.359,0Z" style="fill:#f7b2a6;"/><path d="M120.31,156.6c0,-4.836 -3.926,-8.763 -8.763,-8.763c-4.836,0 -8.763,3.927 -8.763,8.763l0,57.359c0,4.837 3.927,8.763 8.763,8.763c4.837,0 8.763,-3.926 8.763,-8.763l0,-57.359Z" style="fill:#f7b2a6;"/></g></svg>