<?xml version="1.0" encoding="UTF-8" standalone="no"?><!DOCTYPE svg PUBLIC "-//W3C//DTD SVG 1.1//EN" "http://www.w3.org/Graphics/SVG/1.1/DTD/svg11.dtd"><svg width="100%" height="100%" viewBox="0 0 296 297" version="1.1" xmlns="http://www.w3.org/2000/svg" xmlns:xlink="http://www.w3.org/1999/xlink" xml:space="preserve" xmlns:serif="http://www.serif.com/" style="fill-rule:evenodd;clip-rule:evenodd;stroke-linejoin:round;stroke-miterlimit:2;"><g><g><path d="M120.645,250.139c56.03,14.964 113.668,-18.376 128.632,-74.406c14.964,-56.03 -18.377,-113.668 -74.406,-128.632c-56.03,-14.964 -113.668,18.376 -128.632,74.406c-14.964,56.03 18.376,113.668 74.406,128.632Z" style="fill:#8ec400;"/><path d="M249.277,175.733c-14.974,56.067 -72.565,89.38 -128.632,74.406c-56.068,-14.974 -89.38,-72.564 -74.406,-128.632l101.519,27.113l101.519,27.113Z" style="fill:#fbba41;"/><path d="M45.405,172.392c13.129,56.528 69.597,91.71 126.125,78.581l-23.772,-102.353l-102.353,23.772Z" style="fill:#ea644d;"/></g><g><text x="173.493px" y="42.198px" style="font-family:'ArialMT', 'Arial', sans-serif;font-size:15px;">1</text><text x="117.241px" y="264.045px" style="font-family:'ArialMT', 'Arial', sans-serif;font-size:15px;">1</text><text x="198.921px" y="52.746px" style="font-family:'ArialMT', 'Arial', sans-serif;font-size:15px;">2</text><text x="88.642px" y="253.63px" style="font-family:'ArialMT', 'Arial', sans-serif;font-size:15px;">2</text><text x="220.867px" y="70.832px" style="font-family:'ArialMT', 'Arial', sans-serif;font-size:15px;">3</text><text x="66.673px" y="235.693px" style="font-family:'ArialMT', 'Arial', sans-serif;font-size:15px;">3</text><text x="239.645px" y="92.824px" style="font-family:'ArialMT', 'Arial', sans-serif;font-size:15px;">4</text><text x="47.958px" y="211.612px" style="font-family:'ArialMT', 'Arial', sans-serif;font-size:15px;">4</text><text x="248.782px" y="119.471px" style="font-family:'ArialMT', 'Arial', sans-serif;font-size:15px;">5</text><text x="35.109px" y="182.837px" style="font-family:'Arial-BoldMT', 'Arial', sans-serif;font-weight:700;font-size:18px;fill:#fbba41;">5</text><text x="253.398px" y="151.556px" style="font-family:'ArialMT', 'Arial', sans-serif;font-size:15px;">6</text><text x="32.177px" y="151.578px" style="font-family:'ArialMT', 'Arial', sans-serif;font-size:15px;">6</text><text x="250.651px" y="183.204px" style="font-family:'Arial-BoldMT', 'Arial', sans-serif;font-weight:700;font-size:18px;fill:#fbba41;">7</text><text x="36.153px" y="119.56px" style="font-family:'Arial-BoldMT', 'Arial', sans-serif;font-weight:700;font-size:18px;fill:#fbba41;">7</text><text x="239.372px" y="209.037px" style="font-family:'ArialMT', 'Arial', sans-serif;font-size:15px;">8</text><text x="49.727px" y="92.698px" style="font-family:'ArialMT', 'Arial', sans-serif;font-size:15px;">8</text><text x="222.084px" y="234.111px" style="font-family:'ArialMT', 'Arial', sans-serif;font-size:15px;">9</text><text x="68.677px" y="69.831px" style="font-family:'ArialMT', 'Arial', sans-serif;font-size:15px;">9</text><text x="196.758px" y="251.072px" style="font-family:'ArialMT', 'Arial', sans-serif;font-size:15px;">10</text><text x="88.008px" y="51.577px" style="font-family:'ArialMT', 'Arial', sans-serif;font-size:15px;">10</text><text x="169.187px" y="265.059px" style="font-family:'Arial-BoldMT', 'Arial', sans-serif;font-weight:700;font-size:18px;fill:#fbba41;">1<tspan x="178.205px " y="265.059px ">1</tspan></text><text x="116.296px" y="42.198px" style="font-family:'ArialMT', 'Arial', sans-serif;font-size:15px;">1<tspan x="123.525px " y="42.198px ">1</tspan></text><text x="127.176px" y="278.987px" style="font-family:'ArialMT', 'Arial', sans-serif;font-size:13px;">NOON</text><text x="114.151px" y="19.962px" style="font-family:'ArialMT', 'Arial', sans-serif;font-size:13px;">MIDNIGHT</text><text x="205.556px" y="148.493px" style="font-family:'ArialMT', 'Arial', sans-serif;font-size:18px;fill:#fff;">A.M.</text><text x="61.555px" y="151.264px" style="font-family:'ArialMT', 'Arial', sans-serif;font-size:18px;fill:#fff;">P<tspan x="71.24px 76.241px " y="151.264px 151.264px ">.M</tspan>.</text></g></g></svg>