<?xml version="1.0" encoding="UTF-8" standalone="no"?><!DOCTYPE svg PUBLIC "-//W3C//DTD SVG 1.1//EN" "http://www.w3.org/Graphics/SVG/1.1/DTD/svg11.dtd"><svg width="100%" height="100%" viewBox="0 0 177 181" version="1.1" xmlns="http://www.w3.org/2000/svg" xmlns:xlink="http://www.w3.org/1999/xlink" xml:space="preserve" xmlns:serif="http://www.serif.com/" style="fill-rule:evenodd;clip-rule:evenodd;stroke-linecap:square;stroke-linejoin:round;stroke-miterlimit:1.5;"><g><path d="M176.391,21.032c0,-11.249 -9.133,-20.382 -20.382,-20.382l-40.764,0c-11.249,0 -20.382,9.133 -20.382,20.382l0,40.764c0,11.249 9.133,20.382 20.382,20.382l40.764,0c11.249,0 20.382,-9.133 20.382,-20.382l0,-40.764Z" style="fill:#1895d1;"/><path d="M81.528,21.032c0,-11.249 -9.133,-20.382 -20.382,-20.382l-40.764,0c-11.249,0 -20.382,9.133 -20.382,20.382l0,40.764c0,11.249 9.133,20.382 20.382,20.382l40.764,0c11.249,0 20.382,-9.133 20.382,-20.382l0,-40.764Z" style="fill:#1895d1;"/><path d="M81.528,118.684c0,-11.249 -9.133,-20.382 -20.382,-20.382l-40.764,0c-11.249,0 -20.382,9.133 -20.382,20.382l0,40.764c0,11.249 9.133,20.382 20.382,20.382l40.764,0c11.249,0 20.382,-9.133 20.382,-20.382l0,-40.764Z" style="fill:#1895d1;"/><path d="M176.483,118.684c0,-11.249 -9.132,-20.382 -20.381,-20.382l-40.764,0c-11.25,0 -20.382,9.133 -20.382,20.382l0,40.764c0,11.249 9.132,20.382 20.382,20.382l40.764,0c11.249,0 20.381,-9.133 20.381,-20.382l0,-40.764Z" style="fill:#f0674f;stroke:#fff;stroke-width:0.5px;"/><path d="M36.553,15.314c-2.324,0 -4.21,1.887 -4.21,4.211l0,43.778c0,2.324 1.886,4.211 4.21,4.211l8.422,0c2.323,0 4.21,-1.887 4.21,-4.211l0,-43.778c0,-2.324 -1.887,-4.211 -4.21,-4.211l-8.422,0Z" style="fill:#fff;"/><path d="M19.331,123.588c-1.643,1.643 -1.643,4.311 0,5.955l30.956,30.955c1.643,1.644 4.312,1.644 5.955,0l5.955,-5.954c1.643,-1.644 1.643,-4.312 0,-5.955l-30.956,-30.956c-1.643,-1.643 -4.312,-1.643 -5.955,0l-5.955,5.955Z" style="fill:#fff;"/><path d="M161.819,37.203c0,-2.323 -1.887,-4.21 -4.21,-4.21l-43.779,0c-2.323,0 -4.21,1.887 -4.21,4.21l0,8.422c0,2.324 1.887,4.21 4.21,4.21l43.779,0c2.323,0 4.21,-1.886 4.21,-4.21l0,-8.422Z" style="fill:#fff;"/><path d="M161.819,120.611c0,-2.324 -1.887,-4.21 -4.21,-4.21l-43.779,0c-2.323,0 -4.21,1.886 -4.21,4.21l0,8.422c0,2.323 1.887,4.21 4.21,4.21l43.779,0c2.323,0 4.21,-1.887 4.21,-4.21l0,-8.422Z" style="fill:#fff;"/><path d="M161.819,147.276c0,-2.324 -1.887,-4.21 -4.21,-4.21l-43.779,0c-2.323,0 -4.21,1.886 -4.21,4.21l0,8.422c0,2.323 1.887,4.21 4.21,4.21l43.779,0c2.323,0 4.21,-1.887 4.21,-4.21l0,-8.422Z" style="fill:#fff;"/><path d="M66.864,37.203c0,-2.323 -1.887,-4.21 -4.211,-4.21l-43.778,0c-2.324,0 -4.211,1.887 -4.211,4.21l0,8.422c0,2.324 1.887,4.21 4.211,4.21l43.778,0c2.324,0 4.211,-1.886 4.211,-4.21l0,-8.422Z" style="fill:#fff;"/><path d="M56.242,117.633c-1.643,-1.643 -4.312,-1.643 -5.955,0l-30.956,30.956c-1.643,1.643 -1.643,4.311 0,5.955l5.955,5.954c1.643,1.644 4.312,1.644 5.955,0l30.956,-30.955c1.643,-1.644 1.643,-4.312 0,-5.955l-5.955,-5.955Z" style="fill:#fff;"/></g></svg>