<?xml version="1.0" encoding="UTF-8" standalone="no"?><!DOCTYPE svg PUBLIC "-//W3C//DTD SVG 1.1//EN" "http://www.w3.org/Graphics/SVG/1.1/DTD/svg11.dtd"><svg width="100%" height="100%" viewBox="0 0 195 197" version="1.1" xmlns="http://www.w3.org/2000/svg" xmlns:xlink="http://www.w3.org/1999/xlink" xml:space="preserve" xmlns:serif="http://www.serif.com/" style="fill-rule:evenodd;clip-rule:evenodd;stroke-linecap:square;stroke-linejoin:round;stroke-miterlimit:1.5;"><g><g><path d="M103.999,141.01l-13.962,0l0,48.879c0,3.852 3.128,6.98 6.981,6.98c3.853,0 6.981,-3.128 6.981,-6.98l0,-48.879Z" style="fill:#807f83;"/><path d="M94.978,172.761c2.722,-2.726 2.719,-7.15 -0.007,-9.872c-2.727,-2.723 -7.151,-2.719 -9.873,0.007l-13.148,13.168c-2.722,2.726 -2.719,7.15 0.008,9.873c2.726,2.722 7.15,2.719 9.872,-0.008l13.148,-13.168Z" style="fill:#807f83;"/><path d="M99.057,172.761c-2.722,-2.726 -2.719,-7.15 0.008,-9.872c2.726,-2.723 7.15,-2.719 9.872,0.007l13.148,13.168c2.722,2.726 2.719,7.15 -0.007,9.873c-2.727,2.722 -7.15,2.719 -9.873,-0.008l-13.148,-13.168Z" style="fill:#807f83;"/></g><g><path d="M103.127,60.422l-13.962,0l0,-53.119c0,-3.853 3.129,-6.981 6.981,-6.981c3.853,0 6.981,3.128 6.981,6.981l0,53.119Z" style="fill:#807f83;"/><path d="M94.094,26.246c2.729,2.941 2.732,7.707 0.005,10.636c-2.726,2.929 -7.155,2.919 -9.885,-0.022l-13.122,-14.14c-2.73,-2.941 -2.732,-7.706 -0.006,-10.635c2.727,-2.929 7.156,-2.92 9.885,0.021l13.123,14.14Z" style="fill:#807f83;"/><path d="M98.199,26.246c-2.73,2.941 -2.732,7.707 -0.006,10.636c2.727,2.929 7.156,2.919 9.886,-0.022l13.122,-14.14c2.73,-2.941 2.732,-7.706 0.005,-10.635c-2.726,-2.929 -7.155,-2.92 -9.885,0.021l-13.122,14.14Z" style="fill:#807f83;"/></g><g><path d="M55.859,93.047l0,13.962l-48.878,0c-3.853,0 -6.981,-3.129 -6.981,-6.981c0,-3.853 3.128,-6.981 6.981,-6.981l48.878,0Z" style="fill:#807f83;"/><path d="M24.108,102.067c2.727,-2.722 7.15,-2.719 9.873,0.008c2.722,2.726 2.719,7.15 -0.008,9.872l-13.168,13.148c-2.726,2.722 -7.15,2.719 -9.872,-0.007c-2.722,-2.727 -2.719,-7.151 0.007,-9.873l13.168,-13.148Z" style="fill:#807f83;"/><path d="M24.108,97.988c2.727,2.722 7.15,2.719 9.873,-0.007c2.722,-2.727 2.719,-7.151 -0.008,-9.873l-13.168,-13.148c-2.726,-2.722 -7.15,-2.719 -9.872,0.008c-2.722,2.726 -2.719,7.15 0.007,9.872l13.168,13.148Z" style="fill:#807f83;"/></g><g><path d="M138.176,91.871l0,13.962l48.878,0c3.853,0 6.981,-3.128 6.981,-6.981c0,-3.853 -3.128,-6.981 -6.981,-6.981l-48.878,0Z" style="fill:#807f83;"/><path d="M169.927,100.891c-2.726,-2.722 -7.15,-2.719 -9.872,0.008c-2.723,2.726 -2.719,7.15 0.007,9.872l13.168,13.148c2.726,2.723 7.15,2.719 9.872,-0.007c2.723,-2.727 2.719,-7.15 -0.007,-9.873l-13.168,-13.148Z" style="fill:#807f83;"/><path d="M169.927,96.812c-2.726,2.723 -7.15,2.719 -9.872,-0.007c-2.723,-2.727 -2.719,-7.15 0.007,-9.873l13.168,-13.148c2.726,-2.722 7.15,-2.719 9.872,0.008c2.723,2.726 2.719,7.15 -0.007,9.872l-13.168,13.148Z" style="fill:#807f83;"/></g><g><path d="M133.106,120.003l-9.856,9.889l34.619,34.506c2.729,2.72 7.152,2.712 9.872,-0.016c2.72,-2.729 2.713,-7.153 -0.016,-9.873l-34.619,-34.506Z" style="fill:#807f83;"/><path d="M149.226,148.807c-0.009,-3.853 -3.144,-6.973 -6.997,-6.964c-3.853,0.009 -6.974,3.145 -6.964,6.997l0.044,18.608c0.009,3.853 3.145,6.974 6.998,6.965c3.853,-0.01 6.973,-3.145 6.964,-6.998l-0.045,-18.608Z" style="fill:#807f83;"/><path d="M152.106,145.918c-3.853,0.003 -6.984,-3.122 -6.987,-6.975c-0.003,-3.853 3.122,-6.984 6.975,-6.987l18.608,-0.016c3.853,-0.004 6.983,3.121 6.987,6.974c0.003,3.853 -3.122,6.984 -6.975,6.987l-18.608,0.017Z" style="fill:#807f83;"/></g><g><path d="M62.746,76.801l9.856,-9.888l-34.619,-34.506c-2.729,-2.72 -7.153,-2.713 -9.873,0.016c-2.719,2.729 -2.712,7.153 0.017,9.873l34.619,34.505Z" style="fill:#807f83;"/><path d="M46.625,47.998c0.009,3.853 3.145,6.973 6.998,6.964c3.853,-0.009 6.973,-3.145 6.964,-6.998l-0.045,-18.608c-0.009,-3.853 -3.144,-6.973 -6.997,-6.964c-3.853,0.009 -6.974,3.145 -6.964,6.998l0.044,18.608Z" style="fill:#807f83;"/><path d="M43.746,50.887c3.852,-0.004 6.983,3.122 6.987,6.975c0.003,3.852 -3.122,6.983 -6.975,6.987l-18.608,0.016c-3.853,0.003 -6.984,-3.122 -6.987,-6.975c-0.004,-3.853 3.122,-6.983 6.974,-6.987l18.609,-0.016Z" style="fill:#807f83;"/></g><g><path d="M131.106,76.801l-9.856,-9.888l34.619,-34.506c2.729,-2.72 7.152,-2.713 9.872,0.016c2.72,2.729 2.713,7.153 -0.016,9.873l-34.619,34.505Z" style="fill:#807f83;"/><path d="M147.226,47.998c-0.009,3.853 -3.144,6.973 -6.997,6.964c-3.853,-0.009 -6.974,-3.145 -6.964,-6.998l0.044,-18.608c0.009,-3.853 3.145,-6.973 6.998,-6.964c3.853,0.009 6.973,3.145 6.964,6.998l-0.045,18.608Z" style="fill:#807f83;"/><path d="M150.106,50.887c-3.853,-0.004 -6.984,3.122 -6.987,6.975c-0.003,3.852 3.122,6.983 6.975,6.987l18.608,0.016c3.853,0.003 6.983,-3.122 6.987,-6.975c0.003,-3.853 -3.122,-6.983 -6.975,-6.987l-18.608,-0.016Z" style="fill:#807f83;"/></g><g><path d="M62.746,124.242l9.856,9.888l-34.619,34.506c-2.729,2.72 -7.153,2.713 -9.873,-0.016c-2.719,-2.729 -2.712,-7.153 0.017,-9.873l34.619,-34.505Z" style="fill:#807f83;"/><path d="M46.625,153.045c0.009,-3.853 3.145,-6.973 6.998,-6.964c3.853,0.009 6.973,3.145 6.964,6.998l-0.045,18.608c-0.009,3.853 -3.144,6.973 -6.997,6.964c-3.853,-0.009 -6.974,-3.145 -6.964,-6.998l0.044,-18.608Z" style="fill:#807f83;"/><path d="M43.746,150.156c3.852,0.004 6.983,-3.122 6.987,-6.975c0.003,-3.852 -3.122,-6.983 -6.975,-6.987l-18.608,-0.016c-3.853,-0.003 -6.984,3.122 -6.987,6.975c-0.004,3.853 3.122,6.983 6.974,6.987l18.609,0.016Z" style="fill:#807f83;"/></g><circle cx="97.018" cy="99.969" r="36.91" style="fill:none;stroke:#807f83;stroke-width:10px;"/></g></svg>