<?xml version="1.0" encoding="UTF-8" standalone="no"?><!DOCTYPE svg PUBLIC "-//W3C//DTD SVG 1.1//EN" "http://www.w3.org/Graphics/SVG/1.1/DTD/svg11.dtd"><svg width="100%" height="100%" viewBox="0 0 120 223" version="1.1" xmlns="http://www.w3.org/2000/svg" xmlns:xlink="http://www.w3.org/1999/xlink" xml:space="preserve" xmlns:serif="http://www.serif.com/" style="fill-rule:evenodd;clip-rule:evenodd;stroke-linejoin:round;stroke-miterlimit:2;"><g><path d="M119.928,9.332c0,-4.837 -3.926,-8.763 -8.763,-8.763c-4.836,0 -8.763,3.926 -8.763,8.763l0,57.359c0,4.836 3.927,8.763 8.763,8.763c4.837,0 8.763,-3.927 8.763,-8.763l0,-57.359Z" style="fill:#f0674f;"/><path d="M68.3,18.883c-2.418,-4.188 -7.782,-5.625 -11.971,-3.207c-4.188,2.418 -5.626,7.782 -3.207,11.971l28.679,49.674c2.418,4.188 7.782,5.626 11.971,3.207c4.188,-2.418 5.625,-7.782 3.207,-11.97l-28.679,-49.675Z" style="fill:#f0674f;"/><path d="M29.888,54.471c-4.188,-2.418 -9.552,-0.981 -11.971,3.208c-2.418,4.188 -0.981,9.552 3.208,11.971l49.674,28.679c4.189,2.418 9.553,0.981 11.971,-3.208c2.418,-4.188 0.981,-9.552 -3.208,-11.97l-49.674,-28.68Z" style="fill:#f0674f;"/><path d="M29.888,168.675c-4.188,2.419 -9.552,0.981 -11.971,-3.207c-2.418,-4.189 -0.981,-9.553 3.208,-11.971l49.674,-28.679c4.189,-2.419 9.553,-0.981 11.971,3.207c2.418,4.189 0.981,9.553 -3.208,11.971l-49.674,28.679Z" style="fill:#f0674f;"/><path d="M68.3,204.224c-2.418,4.189 -7.782,5.626 -11.971,3.208c-4.188,-2.419 -5.626,-7.783 -3.207,-11.971l28.679,-49.674c2.418,-4.189 7.782,-5.626 11.971,-3.208c4.188,2.418 5.625,7.782 3.207,11.971l-28.679,49.674Z" style="fill:#f0674f;"/><path d="M8.928,101.107c-4.836,0 -8.763,3.927 -8.763,8.763c0,4.837 3.927,8.763 8.763,8.763l57.359,0c4.837,0 8.763,-3.926 8.763,-8.763c0,-4.836 -3.926,-8.763 -8.763,-8.763l-57.359,0Z" style="fill:#f0674f;"/><path d="M119.928,156.447c0,-4.837 -3.926,-8.764 -8.763,-8.764c-4.836,0 -8.763,3.927 -8.763,8.764l0,57.358c0,4.837 3.927,8.764 8.763,8.764c4.837,0 8.763,-3.927 8.763,-8.764l0,-57.358Z" style="fill:#f0674f;"/></g></svg>